<svg class="svg" width="40" height="40" viewBox="0 0 40 40" xmlns="http://www.w3.org/2000/svg">
	<path d="M13 10l.679 1.321L15 12l-1.321.679L13 14l-.679-1.321L11 12l1.321-.679L13 10zm14 14l.679 1.321L29 26l-1.321.679L27 28l-.679-1.321L25 26l1.321-.679L27 24zm-7.464-12.117l2.111 5.446 5.063 2.129L28 20l-1.29.542-5.063 2.129-2.11 5.446L19 29.5l-.536-1.383-2.111-5.446-5.063-2.129L10 20l1.29-.542 5.063-2.129 2.11-5.446L19 10.5l.536 1.383zm1.724 6.368L25.42 20l-4.16 1.749-.392.164-.153.396L19 26.733l-1.715-4.424-.154-.396-.39-.164L12.58 20l4.16-1.749.39-.164.154-.396L19 13.267l1.715 4.424.154.396.39.164z" fill-rule="evenodd" fill-opacity="1" fill="#333" stroke="none"></path>
</svg>